<?xml version="1.0" standalone="no"?>
<!DOCTYPE svg PUBLIC "-//W3C//DTD SVG 20010904//EN"
 "http://www.w3.org/TR/2001/REC-SVG-20010904/DTD/svg10.dtd">
<svg version="1.0" xmlns="http://www.w3.org/2000/svg"
 width="1669.000000pt" height="1500.000000pt" viewBox="0 0 1669.000000 1500.000000"
 preserveAspectRatio="xMidYMid meet">

<g transform="translate(0.000000,1500.000000) scale(0.100000,-0.100000)"
fill="#FFFFFF" stroke="none">
<path d="M7760 10489 c-2612 -81 -4946 -708 -6125 -1645 -145 -116 -384 -355
-472 -474 -360 -486 -417 -974 -173 -1462 607 -1212 3054 -2158 6110 -2362
792 -54 1708 -54 2500 0 2359 157 4395 760 5475 1621 136 108 361 331 442 438
234 310 337 581 337 890 1 159 -13 245 -60 395 -133 422 -516 846 -1091 1208
-1498 945 -4160 1478 -6943 1391z m1245 -429 c1736 -67 3280 -354 4490 -835
900 -357 1541 -807 1802 -1265 159 -277 174 -554 47 -829 -387 -838 -2013
-1612 -4139 -1970 -3349 -563 -7265 -59 -9080 1170 -676 457 -957 939 -820
1404 146 497 771 1011 1725 1418 1239 529 2867 842 4740 910 204 8 1014 6
1235 -3z"/>
<path d="M4766 7608 c-219 -662 -401 -1209 -403 -1215 -4 -10 29 -13 145 -13
l151 0 86 268 c47 147 88 273 90 280 3 9 106 12 469 12 l465 0 91 -280 91
-280 159 0 158 0 -405 1215 -405 1215 -147 0 -147 0 -398 -1202z m665 386 c66
-214 147 -470 180 -570 32 -99 59 -186 59 -192 0 -9 -90 -12 -363 -12 -200 0
-366 2 -369 5 -3 3 14 67 39 143 45 140 184 580 274 865 28 88 52 157 55 154
2 -2 59 -179 125 -393z"/>
<path d="M6290 8753 c11 -32 170 -530 355 -1108 185 -577 352 -1098 371 -1157
l36 -108 156 0 157 0 384 1203 c211 661 386 1208 388 1215 4 9 -30 12 -149 12
l-153 0 -160 -518 c-87 -284 -225 -734 -305 -999 -80 -265 -148 -484 -150
-487 -3 -2 -48 138 -99 312 -52 174 -188 619 -303 987 -115 369 -211 678 -214
688 -5 15 -22 17 -169 17 l-164 0 19 -57z"/>
<path d="M8560 7602 c-220 -664 -400 -1211 -400 -1215 0 -4 67 -7 148 -7 l148
0 90 280 89 280 466 0 465 0 90 -280 89 -280 158 0 c86 0 157 3 157 7 0 5
-181 551 -402 1215 l-403 1208 -147 0 -147 0 -401 -1208z m689 323 c77 -247
158 -503 180 -569 22 -65 38 -123 35 -127 -6 -11 -734 -12 -734 -2 0 4 47 153
104 332 58 180 139 436 181 571 79 251 86 271 92 255 1 -6 65 -212 142 -460z"/>
<path d="M10530 7595 l0 -1215 150 0 150 0 0 408 0 407 165 166 164 167 347
-574 346 -574 189 0 189 0 -48 78 c-276 439 -760 1214 -775 1240 l-19 33 39
47 c161 191 319 405 441 597 66 105 224 383 238 418 6 16 -9 17 -160 17 l-166
0 -35 -69 c-165 -328 -470 -741 -791 -1070 l-123 -126 -1 633 0 632 -150 0
-150 0 0 -1215z"/>
</g>
</svg>